<?xml version="1.0"?>
<svg xmlns="http://www.w3.org/2000/svg" xmlns:xlink="http://www.w3.org/1999/xlink" xmlns:svgjs="http://svgjs.com/svgjs" version="1.1" width="512" height="512" x="0" y="0" viewBox="0 0 512 512" style="enable-background:new 0 0 512 512" xml:space="preserve" class=""><g><g xmlns="http://www.w3.org/2000/svg"><g><path d="m440.934 104.854c.022-2.312-.817-4.552-2.348-6.285-.016-.018-.025-.029-.028-.032l-80.586-95.006-.124-.151c-1.755-2.14-4.376-3.38-7.144-3.38h-.359-250.217c-16.051 0-29.063 13.012-29.063 29.063v453.875c0 16.051 13.012 29.063 29.063 29.063h311.742c16.051 0 29.063-13.012 29.063-29.063v-377.931c0-.002 0-.057.001-.153zm-80.588-67.605 48.992 57.758h-48.992zm18.146 454.751h-244.986v-145.159h244.986zm42.441-9.062c0 4.997-4.065 9.063-9.063 9.063h-13.378v-155.16c0-5.523-4.478-10-10-10h-264.986c-5.522 0-10 4.477-10 10v155.159h-13.378c-4.997 0-9.063-4.065-9.063-9.063v-453.874c0-4.997 4.065-9.063 9.063-9.063h240.218v85.007c0 5.523 4.478 10 10 10h70.587z" fill="#ffffff" data-original="#000000" style="" class=""/><path d="m203.837 143.854h22.035v21.841c0 5.523 4.478 10 10 10h40.254c5.522 0 10-4.477 10-10v-21.841h22.035c5.522 0 10-4.477 10-10v-40.01c0-5.523-4.478-10-10-10h-22.035v-21.841c0-5.523-4.478-10-10-10h-40.254c-5.522 0-10 4.477-10 10v21.841h-22.035c-5.522 0-10 4.477-10 10v40.01c0 5.523 4.477 10 10 10zm10-40.01h22.035c5.522 0 10-4.477 10-10v-21.841h20.254v21.841c0 5.523 4.478 10 10 10h22.035v20.01h-22.035c-5.522 0-10 4.477-10 10v21.841h-20.254v-21.841c0-5.523-4.478-10-10-10h-22.035z" fill="#ffffff" data-original="#000000" style="" class=""/><path d="m367.439 282.243h-222.879c-5.522 0-10 4.477-10 10s4.478 10 10 10h222.879c5.522 0 10-4.477 10-10s-4.478-10-10-10z" fill="#ffffff" data-original="#000000" style="" class=""/><path d="m134.56 210.83c0 5.523 4.478 10 10 10h222.879c5.522 0 10-4.477 10-10s-4.478-10-10-10h-222.879c-5.523 0-10 4.477-10 10z" fill="#ffffff" data-original="#000000" style="" class=""/><path d="m167.082 456.015c5.523 0 10-4.477 10-10v-17.238h10.069c5.522 0 10-4.477 10-10s-4.478-10-10-10h-10.069v-6.226h11.802c5.522 0 10-4.477 10-10s-4.478-10-10-10h-21.802c-5.522 0-10 4.477-10 10v53.464c0 5.523 4.478 10 10 10z" fill="#ffffff" data-original="#000000" style="" class=""/><path d="m322.292 455.966h22.624c5.522 0 10-4.477 10-10s-4.478-10-10-10h-12.624v-6.683h10.955c5.522 0 10-4.477 10-10s-4.478-10-10-10h-10.955v-6.683h12.624c5.522 0 10-4.477 10-10s-4.478-10-10-10h-22.624c-5.522 0-10 4.477-10 10v53.366c0 5.523 4.478 10 10 10z" fill="#ffffff" data-original="#000000" style="" class=""/><path d="m270.418 455.966h22.624c5.522 0 10-4.477 10-10s-4.478-10-10-10h-12.624v-6.683h10.956c5.523 0 10-4.477 10-10s-4.477-10-10-10h-10.956v-6.683h12.624c5.522 0 10-4.477 10-10s-4.478-10-10-10h-22.624c-5.522 0-10 4.477-10 10v53.366c0 5.523 4.478 10 10 10z" fill="#ffffff" data-original="#000000" style="" class=""/><path d="m215.208 456.212c5.522 0 10-4.477 10-10v-6.709l11.811 13.338c1.976 2.232 4.727 3.371 7.49 3.371 2.356 0 4.723-.828 6.625-2.513 4.136-3.661 4.52-9.981.857-14.116l-10.674-12.054c7.841-4.044 13.187-12.02 13.187-21.178 0-13.232-11.161-23.997-24.88-23.997h-14.399c-.003 0-.006 0-.009 0s-.006 0-.009 0c-5.523 0-10 4.477-10 10v53.858c.001 5.523 4.479 10 10.001 10zm14.417-53.858c2.6 0 4.88 1.868 4.88 3.997s-2.28 3.997-4.88 3.997c-1.094 0-2.656.004-4.353.011-.007-1.567-.011-2.999-.011-4.009 0-.883-.003-2.344-.007-3.997h4.371z" fill="#ffffff" data-original="#000000" style="" class=""/><path d="m367.439 241.537h-66.233c-5.522 0-10 4.477-10 10s4.478 10 10 10h66.233c5.522 0 10-4.477 10-10s-4.478-10-10-10z" fill="#ffffff" data-original="#000000" style="" class=""/><path d="m144.56 261.537h66.233c5.522 0 10-4.477 10-10s-4.478-10-10-10h-66.233c-5.522 0-10 4.477-10 10s4.477 10 10 10z" fill="#ffffff" data-original="#000000" style="" class=""/><path d="m247.869 257.09c2.309 3.47 6.7 5.168 10.742 4.14 4.002-1.018 7.017-4.445 7.507-8.549.495-4.146-1.785-8.267-5.517-10.112-3.803-1.88-8.494-1.091-11.493 1.9-3.334 3.327-3.848 8.71-1.239 12.621z" fill="#ffffff" data-original="#000000" style="" class=""/></g></g></g></svg>
